<svg width="22" height="20" viewBox="0 0 22 20" fill="none" xmlns="http://www.w3.org/2000/svg">
<path d="M4.79564 6.50051V20.0022H0.263842V6.50051H4.79564ZM5.08376 2.33218L5.08544 2.41385C5.08544 3.03801 4.81832 3.59968 4.3916 3.99301L4.38992 3.99385C4.13848 4.22181 3.844 4.39809 3.52349 4.51252C3.20299 4.62694 2.86281 4.67724 2.5226 4.66051H2.52848H2.50076C2.16838 4.67591 1.83628 4.62475 1.52427 4.51007C1.21225 4.39538 0.926713 4.21954 0.684682 3.99301L0.685522 3.99385C0.460912 3.77885 0.284007 3.51971 0.166123 3.23301C0.0482399 2.94631 -0.00802696 2.63836 0.000922189 2.32885V2.33218L8.21891e-05 2.27468C8.21891e-05 1.63968 0.272242 1.06801 0.706522 0.667179L0.708202 0.666346C1.21285 0.210878 1.87886 -0.0276433 2.5604 0.00301263H2.55536C2.88932 -0.0133214 3.2232 0.0368866 3.53728 0.150673C3.85136 0.264459 4.13928 0.439517 4.38404 0.665513L4.38236 0.663846C4.60446 0.875649 4.78108 1.12982 4.90162 1.41109C5.02216 1.69235 5.08411 1.99489 5.08376 2.30051V2.33551V2.33385V2.33218ZM21.0958 12.2655V20.0022H16.5783V12.7813C16.6243 11.989 16.4266 11.2014 16.0113 10.523L16.0214 10.5405C15.8258 10.2678 15.5624 10.05 15.2568 9.90805C14.9513 9.76613 14.614 9.70497 14.2776 9.73051H14.2843C13.7585 9.7116 13.2432 9.87944 12.8311 10.2038L12.8361 10.2005C12.4556 10.505 12.1577 10.8988 11.9692 11.3463L11.9625 11.3655C11.8481 11.7238 11.7973 12.0991 11.8122 12.4747V12.4688V20.0038H7.29464C7.31312 16.38 7.32236 13.4416 7.32236 11.1888C7.32236 8.93607 7.31788 7.5919 7.30892 7.15635L7.29548 6.50218H11.813V8.46385H11.7853C11.965 8.17635 12.1507 7.92718 12.3548 7.69385L12.3481 7.70135C12.5838 7.44412 12.8381 7.21135 13.1108 7.00301L13.1242 6.99301C13.4737 6.72674 13.8703 6.52775 14.2935 6.40635L14.3187 6.40051C14.8092 6.25918 15.3175 6.18791 15.8282 6.18885H15.8946H15.8912C16.5953 6.15987 17.2974 6.28277 17.9489 6.54908C18.6005 6.81538 19.1861 7.21875 19.6653 7.73135L19.6678 7.73468C20.621 8.76579 21.0975 10.2758 21.0975 12.2647L21.0958 12.2655Z" fill="#353535"/>
</svg>
