<svg width="20" height="20" viewBox="0 0 20 20" fill="none" xmlns="http://www.w3.org/2000/svg">
<path d="M14.6387 6.00891C14.7817 6.00891 14.865 5.91404 14.8883 5.78385C15.2572 3.82084 15.2455 3.77341 17.3025 3.37172C17.4451 3.3475 17.5288 3.27685 17.5288 3.13455C17.5288 2.98114 17.4451 2.90999 17.3025 2.88627C15.2455 2.47248 15.2577 2.43715 14.8883 0.473643C14.865 0.343448 14.7817 0.249083 14.6387 0.249083C14.4966 0.249083 14.4245 0.343448 14.4012 0.473643C14.0206 2.43665 14.044 2.47197 11.9748 2.88627C11.8439 2.90999 11.749 2.98114 11.749 3.13455C11.749 3.27685 11.8444 3.3475 11.9748 3.37172C14.0562 3.77341 14.0206 3.82084 14.4012 5.78385C14.4245 5.91404 14.4961 6.00891 14.6387 6.00891ZM10.3937 20.0002C14.7462 20.0002 18.2666 17.8243 19.872 14.1223C20.0856 13.6137 20.0141 13.2236 19.7888 12.9869C19.5747 12.7861 19.218 12.7386 18.7892 12.9042C17.8977 13.2589 16.8037 13.4597 15.4358 13.4597C10.1202 13.4597 6.69524 10.16 6.69524 4.96786C6.69524 3.53674 6.96873 2.11772 7.3371 1.37239C7.57558 0.89955 7.55123 0.49736 7.34928 0.249083C7.12349 -0.0113053 6.71909 -0.0940637 6.15993 0.130496C2.50915 1.60906 3.67448e-05 5.39377 3.67448e-05 9.81734C3.67448e-05 15.5772 4.25716 20.0002 10.3937 20.0002ZM10.4176 18.2033C5.33945 18.2033 1.80741 14.5245 1.80741 9.67554C1.80741 6.69521 3.19871 4.06963 5.411 2.39022C5.12533 3.15877 4.9589 4.34162 4.9589 5.47703C4.9589 11.2959 9.00241 15.1992 14.9842 15.1992C16.0548 15.1992 17.0295 15.069 17.5288 14.8914C16.0421 16.9376 13.3904 18.2033 10.4176 18.2033Z" fill="#9E9E9E"/>
</svg>
