<svg width="21" height="22" viewBox="0 0 21 22" fill="none" xmlns="http://www.w3.org/2000/svg">
<path d="M6.21777 11.4352C6.21777 8.97603 6.21777 7.7456 6.98212 6.98212C7.7456 6.21777 8.97603 6.21777 11.4352 6.21777H14.0439C16.503 6.21777 17.7334 6.21777 18.4969 6.98212C19.2613 7.7456 19.2613 8.97603 19.2613 11.4352V15.783C19.2613 18.2421 19.2613 19.4726 18.4969 20.236C17.7334 21.0004 16.503 21.0004 14.0439 21.0004H11.4352C8.97603 21.0004 7.7456 21.0004 6.98212 20.236C6.21777 19.4726 6.21777 18.2421 6.21777 15.783V11.4352Z" stroke="#A7A7A7" stroke-width="1.5"/>
<path opacity="0.5" d="M3.6087 15.7826C2.91683 15.7826 2.25329 15.5078 1.76407 15.0185C1.27484 14.5293 1 13.8658 1 13.1739V7.95652C1 4.67739 1 3.03739 2.01913 2.01913C3.03826 1.00087 4.67739 1 7.95652 1H11.4348C12.1267 1 12.7902 1.27484 13.2794 1.76407C13.7686 2.25329 14.0435 2.91683 14.0435 3.6087" stroke="#C6C6C6" stroke-width="1.5" stroke-linecap="round"/>
</svg>
