<svg width="20" height="20" viewBox="0 0 20 20" fill="none" xmlns="http://www.w3.org/2000/svg">
<path d="M9.99956 5.4541C10.4322 5.4541 10.7833 5.8052 10.7833 6.2378V9.21586H13.7613C13.9692 9.21586 14.1685 9.29843 14.3155 9.4454C14.4624 9.59237 14.545 9.79171 14.545 9.99956C14.545 10.2074 14.4624 10.4067 14.3155 10.5537C14.1685 10.7007 13.9692 10.7833 13.7613 10.7833H10.7833V13.7613C10.7833 13.9692 10.7007 14.1685 10.5537 14.3155C10.4067 14.4624 10.2074 14.545 9.99956 14.545C9.79171 14.545 9.59237 14.4624 9.4454 14.3155C9.29843 14.1685 9.21586 13.9692 9.21586 13.7613V10.7833H6.2378C6.02995 10.7833 5.83061 10.7007 5.68364 10.5537C5.53667 10.4067 5.4541 10.2074 5.4541 9.99956C5.4541 9.79171 5.53667 9.59237 5.68364 9.4454C5.83061 9.29843 6.02995 9.21586 6.2378 9.21586H9.21586V6.2378C9.21586 5.8052 9.56695 5.4541 9.99956 5.4541Z" fill="#D1D1D1"/>
<circle cx="10" cy="10" r="9.1" stroke="#676767" stroke-width="1.8"/>
</svg>
