<svg width="22" height="22" viewBox="0 0 22 22" fill="none" xmlns="http://www.w3.org/2000/svg">
<path d="M9.00054 17H13.0005M1.35154 12.214C0.99854 9.916 0.82154 8.768 1.25654 7.749C1.69054 6.731 2.65454 6.034 4.58154 4.641L6.02154 3.6C8.41854 1.867 9.61754 1 11.0005 1C12.3835 1 13.5825 1.867 15.9795 3.6L17.4195 4.641C19.3465 6.034 20.3095 6.731 20.7445 7.749C21.1785 8.768 21.0025 9.916 20.6495 12.213L20.3485 14.173C19.8485 17.429 19.5975 19.057 18.4295 20.029C17.2615 21.001 15.5545 21 12.1395 21H9.86054C6.44554 21 4.73854 21 3.57054 20.029C2.40254 19.057 2.15254 17.429 1.65154 14.172L1.35154 12.214Z" stroke="#EFEFF1" stroke-width="1.5" stroke-linecap="round" stroke-linejoin="round"/>
</svg>
